<svg width="17" height="17" viewBox="0 0 17 17" fill="none" xmlns="http://www.w3.org/2000/svg">
<g clip-path="url(#clip0_31_5089)">
<path d="M10.9763 13.7037C11.0035 13.7082 11.0305 13.7104 11.0572 13.7104C11.2916 13.7104 11.4986 13.5411 11.5384 13.3022L12.0269 10.3714C12.0712 10.1053 11.8915 9.8536 11.6253 9.80925C11.3592 9.76476 11.1076 9.94465 11.0632 10.2108L10.5747 13.1416C10.5304 13.4077 10.7101 13.6594 10.9763 13.7037Z" fill="black"/>
<path d="M5.16905 13.3021C5.20888 13.5411 5.41579 13.7104 5.65029 13.7104C5.67696 13.7104 5.70399 13.7082 5.73118 13.7037C5.99729 13.6593 6.17705 13.4076 6.1327 13.1415L5.64423 10.2107C5.59988 9.94461 5.34825 9.76489 5.0821 9.80921C4.81599 9.85356 4.63623 10.1052 4.68058 10.3713L5.16905 13.3021Z" fill="black"/>
<path d="M16.1854 5.89473H14.4663L10.7052 1.1934C10.5367 0.982809 10.2293 0.948583 10.0187 1.11714C9.808 1.28566 9.77384 1.59303 9.94239 1.80369L13.2152 5.89473H3.45949L6.73235 1.80369C6.90087 1.59303 6.86671 1.28563 6.65608 1.11714C6.44539 0.948583 6.13802 0.982776 5.96953 1.1934L2.20843 5.89473H0.489321C0.219557 5.89473 0.000854492 6.11344 0.000854492 6.3832V8.33707C0.000854492 8.60683 0.219557 8.82553 0.489321 8.82553H1.09782L2.95048 15.3098C3.01036 15.5195 3.20204 15.6641 3.42012 15.6641H13.2546C13.4727 15.6641 13.6643 15.5195 13.7243 15.3098L15.5769 8.82553H16.1854C16.4552 8.82553 16.6739 8.60683 16.6739 8.33707V6.3832C16.6739 6.11344 16.4552 5.89473 16.1854 5.89473ZM12.8862 14.6871H3.78856L2.11383 8.82553H14.5609L12.8862 14.6871ZM15.6969 7.8486C14.0236 7.8486 2.56303 7.8486 0.977788 7.8486V6.87167H15.6969V7.8486Z" fill="black"/>
<path d="M8.33736 13.7102C8.60712 13.7102 8.82583 13.4915 8.82583 13.2218V10.291C8.82583 10.0212 8.60712 9.80249 8.33736 9.80249C8.0676 9.80249 7.84889 10.0212 7.84889 10.291V13.2218C7.84889 13.4916 8.0676 13.7102 8.33736 13.7102Z" fill="black"/>
</g>
<defs>
<clipPath id="clip0_31_5089">
<rect width="16.673" height="16.673" fill="white"/>
</clipPath>
</defs>
</svg>
